<?xml version="1.0" encoding="utf-8"?>
<!-- Generator: Adobe Illustrator 19.0.0, SVG Export Plug-In . SVG Version: 6.00 Build 0)  -->
<svg version="1.1" id="Layer_1" xmlns="http://www.w3.org/2000/svg" xmlns:xlink="http://www.w3.org/1999/xlink" x="0px" y="0px"
	 viewBox="0 0 600 600" style="enable-background:new 0 0 600 600;" xml:space="preserve">
<g id="XMLID_1_">
	<path id="XMLID_45_" d="M144.9,565.2c-38.8,0-77.6,0-116.5,0c-6.7,0-6.7,0-6.7-6.7c0-48.3-0.9-96.7,0.4-144.9
		c0.7-26.6,12.2-49.4,33.1-66.8c14-11.6,30.2-16.2,48.1-16.1c26,0.2,52,0.3,78,0c19.4-0.2,36.8,4.9,51.8,17.3c2.1,1.8,2.9,2,4-0.9
		c3.1-7.7,6.6-15.3,9.7-23c1.2-3.1,3.1-4.4,6.4-4.4c42.6,0.1,85.3,0.1,127.9,0c4.2,0,4.3,1.7,3,4.9c-13.9,33.3-28.2,66.5-41.5,100
		c-8.9,22.6-18.7,44.8-27.4,67.5c-0.4,0.9-0.7,1.9-1.1,2.8c-5.4,11.9-6.8,12.8-19.8,10.7c-7.3-1.1-14.6-0.4-21.9-0.7
		c-3.8-0.2-4.3,2.1-4.3,5.2c0.1,16.2,0,32.3,0,48.5c0,6.5-0.1,6.6-6.8,6.6C222.6,565.2,183.8,565.2,144.9,565.2z M350.5,369.2
		c-5-1.7-95.1-1.3-98.1,0.4C257.3,371.6,347.5,371.2,350.5,369.2z M363.7,337.8c-0.1-0.7-0.1-1.4-0.2-2.1c-35.3,0-70.6,0-106,0
		C292.9,338.1,328.3,338.4,363.7,337.8z M344.6,385.5c-29-1-56.6-2-85.2-1C263.7,387.4,337.5,388,344.6,385.5z M356.5,353.4
		c0-0.3,0-0.6,0-0.9c-35.3,0-70.6,0-105.9,0c0,0.3,0,0.6,0,0.9C285.9,353.4,321.2,353.4,356.5,353.4z M268,417.5c0,0.6,0,1.1,0,1.7
		c20.7,0,41.3,0,62,0c0-0.6,0-1.1,0-1.7C309.3,417.1,288.7,417.1,268,417.5z M266.4,402c1.3,1.4,2.8,0.8,4.2,0.9
		c21.1,0.5,42.2-1,63.2,0.9c1.1,0.1,2.8,0.3,2.9-1.1c0.2-2.1-1.8-1.3-3-1.5c-0.6-0.1-1.3,0-2,0c-20.3,0-40.5,0-60.8,0
		C269.5,401.1,267.8,400.4,266.4,402z M292.4,452.8c7.1,0,14.3,0,21.4,0c1.1,0,2.7,0,2.8-1.5c0.1-1.3-1.3-1.3-2.3-1.3
		c-14.3,0-28.6,0-42.8,0c-1,0-2.7-0.2-2.5,1.6c0.1,1.2,1.5,1.1,2.5,1.1C278.5,452.8,285.5,452.8,292.4,452.8z M268,466.8
		c4.5,2.6,38.5,2.5,42.9,0C296.3,466.8,282.7,466.8,268,466.8z M269.6,434.5c0,0.3,0,0.5,0,0.8c17.6,0,35.3,0,52.9,0
		c0-0.3,0-0.5,0-0.8C304.8,434.5,287.2,434.5,269.6,434.5z"/>
	<path id="XMLID_44_" d="M351.6,38.8c26.7,0,53.3,0,80,0c20.4,0,37.1,15.9,37.4,36.4c0.4,25.8,0.3,51.7,0,77.5
		c-0.3,21.3-19.9,37.4-37.5,36.6c-6.3-0.3-12.7,0.2-19-0.1c-4.2-0.2-5.4,1.5-5.4,5.6c0.2,12.7,0.1,25.3,0,38c0,1.4,0.7,3.4-0.9,4.1
		c-1.7,0.7-2.5-1.2-3.5-2.2c-13.7-13.6-28-26.6-41-41c-2.9-3.2-6.1-4.5-10.5-4.5c-26.8,0.2-53.7,0.1-80.5,0.1
		c-19.6,0-36.8-17-36.9-36.5c-0.1-25.8-0.1-51.7,0-77.5c0.1-20.2,16.6-36.4,36.7-36.4C297.6,38.8,324.6,38.8,351.6,38.8z"/>
	<path id="XMLID_43_" d="M493.5,484.2c-28.7,0-57.3,0-86,0c-6.6,0-6.8-0.1-6.8-6.7c0-33.8-0.4-67.7,0.1-101.5
		c0.4-22.6,8.5-42.4,26.6-56.9c8.8-7,19.1-11.4,30.8-11.3c22.8,0.1,45.7,0,68.5,0.1c12.9,0,24,5,33.7,13.1
		c18.2,15.1,25.8,34.8,25.7,58.1c-0.1,32.8,0,65.7,0,98.5c0,6.6-0.1,6.6-6.8,6.6C550.8,484.2,522.1,484.2,493.5,484.2z"/>
	<path id="XMLID_42_" d="M72.7,240.5c-0.3-41.4,33.1-73,72.8-72.7c40.4,0.3,72.2,31.6,72.3,72.5c0.1,39.9-30.2,73.3-72.6,73.3
		C104.3,313.7,72.1,281.6,72.7,240.5z"/>
	<path id="XMLID_41_" d="M548.2,239.7c2.2,27.7-24.4,55.7-55.6,54.7c-29.8-1-53.8-24.5-53.8-54.9c0.1-30.6,23.8-54.8,55.3-54.8
		C524.3,184.7,549.8,209.9,548.2,239.7z"/>
</g>
</svg>
