<svg width="168" height="168" viewBox="0 0 168 168" fill="none" xmlns="http://www.w3.org/2000/svg">
<path d="M32.7947 76.5092C32.5972 72.5755 30.9844 69.2646 27.4627 67.1667C22.427 64.1836 17.2925 61.4301 12.191 58.5781C11.9277 58.447 11.6644 58.2831 11.434 58.152C10.7099 57.7914 10.6112 57.3653 11.1707 56.7096C12.8822 54.71 14.5608 52.6776 16.2393 50.678C22.9207 42.7451 29.5692 34.8121 36.2506 26.912C43.6231 18.1596 51.0286 9.40713 58.3683 0.621914C58.9936 -0.0992606 59.4544 -0.230384 60.2443 0.425229C66.3003 5.53901 72.3893 10.5872 78.4782 15.6682C85.1267 21.2082 91.7752 26.7481 98.3907 32.3208C100.464 34.0582 100.333 33.5993 98.7199 35.5005C91.1498 44.4824 83.5798 53.4644 76.0427 62.4463C68.6701 71.1987 61.2975 79.9839 53.925 88.7364C47.836 95.9809 41.7142 103.225 35.6252 110.503C35.0986 111.126 34.6707 111.224 34.0125 110.634C22.8549 101.291 11.6644 91.9489 0.5068 82.6064C0.276408 82.4097 -0.184379 82.2458 0.0789271 81.8852C0.243493 81.6229 0.605539 81.8524 0.901758 81.9507C6.59575 83.7537 12.3227 85.5894 18.0166 87.4251C25.2905 89.7525 32.7947 84.311 32.7947 76.5092ZM48.1322 72.2149C58.7632 72.2149 66.1029 62.8724 63.6015 52.5465C61.7254 44.8103 54.0566 38.3197 45.0384 38.713C37.4025 39.0736 30.7211 45.1053 30.0958 52.6776C29.1742 63.1346 37.6 72.2149 48.1322 72.2149Z" transform="translate(48.3145)" fill="black"/>
<path d="M70.0367 1.08397C75.3028 1.08397 80.5689 1.05119 85.835 1.08397C88.4352 1.11675 91.0024 1.34622 93.5696 1.80515C99.8231 2.95247 104.563 6.26332 108.117 11.4754C111.31 16.1631 113.68 21.3096 115.753 26.5546C117.596 31.1438 119.374 35.7659 121.151 40.388C121.579 41.4697 121.447 41.6337 120.295 41.732C110.257 42.6499 100.218 43.5349 90.1796 44.4528C88.0731 44.6495 85.9667 44.8462 83.8602 45.0756C83.2349 45.1412 82.8399 44.9445 82.4779 44.42C79.779 40.388 75.961 38.6834 71.1886 38.7162C62.1375 38.749 53.0534 38.5851 44.0023 38.7162C37.0905 38.8145 31.0345 36.5854 25.4721 32.7173C21.7529 30.1604 18.5275 27.0135 15.2361 23.9977C11.2207 20.3262 7.10656 16.7859 2.9595 13.2784C0.491004 11.2132 -0.562221 8.62352 0.293523 5.47657C1.11635 2.39519 3.28863 0.625038 6.41539 0.100547C8.25853 -0.227259 10.0029 0.264454 11.5169 1.31344C17.7046 5.50936 23.9252 9.6725 30.0142 14.0323C34.4904 17.2448 39.3286 18.8839 44.858 18.8183C52.8889 18.72 60.9526 18.7855 68.9834 18.7855C69.4442 18.7855 69.9379 18.8183 70.3987 18.72C71.3203 18.4905 71.9456 17.9332 71.9456 16.8843C71.9456 15.9336 71.2874 15.1141 70.3329 14.983C69.9379 14.9174 69.543 14.9502 69.1151 14.9502C63.9477 14.9502 58.8132 14.9502 53.6459 14.9502C49.5975 14.9502 46.4708 11.9344 46.4708 8.00069C46.4379 4.09979 49.4659 1.18231 53.613 1.14953C59.0436 1.05119 64.5401 1.08397 70.0367 1.08397Z" transform="translate(41.9453 111.385)" fill="black"/>
<path d="M0.00365677 24.8099C0.00365677 19.6305 0.00365677 14.4512 0.00365677 9.30459C0.00365677 7.7639 0.0365695 7.66556 1.51766 7.7639C4.87481 7.99337 7.86992 6.5838 10.9967 5.7315C16.7236 4.19081 22.4176 2.61733 28.0786 0.912739C32.9498 -0.52961 37.7551 -0.0378993 42.6263 0.847179C47.8266 1.79782 53.0598 2.6829 58.293 3.60076C59.5766 3.83022 59.6424 3.96134 58.8196 4.94476C53.7839 10.9436 48.7481 16.9425 43.7124 22.9741C43.2516 23.5314 42.725 23.7937 42.0009 23.7609C40.5528 23.7281 39.0717 23.7281 37.6235 23.7609C35.517 23.7937 34.1018 24.8426 33.641 26.6783C33.1802 28.4813 33.9372 30.0548 35.8133 31.1037C41.4085 34.2507 47.0367 37.3648 52.6648 40.5118C54.3763 41.4624 56.1207 42.4458 57.8322 43.3965C60.8273 45.1011 62.0451 48.8381 60.6627 52.1489C59.3791 55.2303 55.7258 57.066 52.5003 56.0826C45.0619 53.7552 37.6564 51.3294 30.2509 49.002C27.4862 48.1169 24.7544 47.2318 22.4176 45.4617C20.8048 44.2488 19.4225 42.7737 18.1059 41.2657C16.2957 39.2006 14.2551 38.2171 11.4245 39.1022C8.13322 40.1184 4.77608 40.8724 1.45184 41.7247C0.23405 42.0197 0.102397 41.9214 0.102397 40.6757C-0.0292555 35.3652 0.00365677 30.0875 0.00365677 24.8099Z" transform="translate(15.5752 27.3105)" fill="black"/>
<path d="M22.9142 10.7628C15.8049 10.7628 8.7286 10.7628 1.61934 10.7628C0.072417 10.7628 0.072411 10.7628 0.0394978 9.15657C0.0394978 7.9109 0.105322 6.66522 0.00658254 5.45234C-0.0592439 4.46892 0.368636 4.10834 1.29021 4.01C4.022 3.78053 6.7538 3.51829 9.4856 3.25605C15.6404 2.69878 21.7622 2.10872 27.917 1.55145C33.5122 1.02696 39.1075 0.535244 44.7027 0.0107534C45.361 -0.054808 45.6901 0.174657 45.6901 0.83027C45.6901 3.84609 45.6901 6.86192 45.6901 9.91052C45.6901 10.6645 45.1965 10.7628 44.5711 10.7628C42.0368 10.7628 39.5354 10.7628 37.0011 10.7628C32.3603 10.7628 27.6208 10.7628 22.9142 10.7628Z" transform="translate(122.31 157.237)" fill="black"/>
<path d="M10.8064 22.7826C10.8064 29.8304 10.8064 36.911 10.8064 43.9589C10.8064 45.4668 10.8064 45.4668 9.2595 45.4668C7.91006 45.4668 6.56062 45.434 5.21117 45.4668C4.48708 45.4996 4.19086 45.1718 4.12503 44.4506C3.5326 37.9928 2.94016 31.5678 2.34772 25.11C1.72237 18.4555 1.09702 11.801 0.438754 5.14656C0.307101 3.737 0.175449 2.32743 0.0108824 0.91786C-0.054944 0.327808 0.175448 0 0.767886 0C3.82882 0 6.92266 0 9.98359 0C10.8722 0 10.8064 0.655614 10.8064 1.24567C10.8064 5.21213 10.8064 9.17859 10.8064 13.1451C10.8064 16.3903 10.8064 19.5701 10.8064 22.7826Z" transform="translate(0 30.9441)" fill="black"/>
<path d="M21.4696 12.3709C21.5025 13.2232 21.3708 14.0428 21.0417 14.8295C20.6796 15.6162 20.9429 16.1079 21.5683 16.5997C23.3127 18.0092 23.3127 17.7798 21.8645 19.4844C21.7658 19.5827 21.667 19.7138 21.6012 19.8122C20.2847 21.4512 20.2518 21.484 18.639 20.1072C18.1124 19.6483 17.7504 19.6483 17.2567 20.14C16.368 21.025 15.3148 21.6479 14.1628 22.2051C13.5045 22.5002 13.0109 22.4346 12.583 21.779C11.9905 20.8611 11.3323 19.9761 10.674 19.091C10.1803 18.4682 10.2791 18.0748 11.0361 17.8125C12.583 17.2553 13.8995 16.3374 14.9527 15.0917C15.4793 14.4689 16.2364 13.6822 15.5781 12.8954C14.9527 12.1087 14.0312 12.6332 13.2742 13.0266C12.0564 13.6166 10.9373 14.4033 9.68661 14.8951C5.53954 16.4685 1.85326 14.305 1.32665 9.97796C1.195 9.02732 1.39248 8.07668 1.75453 7.1916C2.08366 6.40487 1.91909 5.88038 1.22792 5.45423C0.931697 5.25755 0.668389 4.9953 0.37217 4.76583C-0.0886148 4.40525 -0.121524 4.01188 0.273435 3.55295C0.931699 2.83178 1.55705 2.07782 2.1824 1.29108C2.54444 0.832152 2.90649 0.733812 3.36728 1.15996C3.56476 1.32386 3.76223 1.48777 3.95971 1.65167C4.58506 2.30728 5.04585 2.2745 5.76994 1.65167C8.43591 -0.675756 8.6663 -0.610197 10.674 2.2745C11.826 3.91354 11.826 3.88075 10.0487 4.89696C8.96252 5.51979 7.97513 6.27374 7.31686 7.3555C7.05356 7.78165 6.82317 8.24058 7.1523 8.66673C7.51434 9.19122 8.04095 8.92898 8.43591 8.76507C9.29166 8.37171 10.1474 7.94556 10.9702 7.48663C11.826 6.99492 12.7146 6.60155 13.702 6.33931C17.7833 5.25755 21.5025 8.14224 21.4696 12.3709Z" transform="translate(83.666 44.6338)" fill="black"/>
</svg>
