<svg width="160" height="175" viewBox="0 0 160 175" fill="none" xmlns="http://www.w3.org/2000/svg">
<path d="M131.339 105.067C131.339 127.018 131.339 148.969 131.339 170.92C131.339 173.752 131.339 173.752 128.627 173.752C97.2009 173.752 65.8088 173.752 34.3829 173.752C31.3996 173.752 31.4335 173.752 31.4335 170.718C31.4335 168.796 31.4335 166.84 31.4335 164.918C31.4335 162.49 31.5691 162.355 33.9083 162.355C47.2312 162.355 60.5203 162.355 73.8433 162.355C88.3189 162.355 102.794 162.355 117.27 162.355C119.88 162.355 119.914 162.322 119.914 159.793C119.914 124.624 119.914 89.422 119.914 54.2534C119.914 51.7245 119.88 51.6907 117.27 51.6907C106.117 51.6907 94.9295 51.657 83.7762 51.7245C81.8438 51.7245 81.1997 51.185 81.1997 49.2293C81.1319 41.3728 81.1319 33.5164 81.2336 25.6599C81.3014 21.4114 81.0641 17.1628 81.098 12.9143C81.1319 11.1946 80.1149 11.4306 79.064 11.4306C68.4192 11.4306 57.7744 11.4306 47.1295 11.4306C35.9084 11.4306 24.6873 11.4644 13.4323 11.4306C12.1101 11.4306 11.5677 11.5992 11.5338 13.2177C11.4321 23.6705 11.466 34.0896 11.5677 44.5424C11.6355 53.7476 11.4321 62.9865 11.4321 72.1917C11.4321 81.026 11.5677 89.8603 11.5677 98.6609C11.5677 108.473 11.466 118.251 11.466 128.064C11.466 129.412 11.0592 129.918 9.70319 129.918C7.22844 129.884 4.75368 129.851 2.31283 129.918C0.753403 129.952 0.109292 129.345 0.143193 127.76C0.177093 123.882 0.109293 120.039 0.0753922 116.161C0.0414916 111.98 0.0414895 107.799 0.0414895 103.618C0.0414895 100.01 0.0753922 96.4017 0.0753922 92.7938C0.0753922 88.7476 0.143192 84.6676 0.0414895 80.6214C-0.0263119 77.5193 0.0753902 74.4509 0.0414895 71.3487C-0.0941133 62.447 0.143189 53.579 0.17709 44.6773C0.17709 38.237 0.00758674 31.7967 0.00758674 25.3565C0.00758674 19.1185 0.109289 12.8468 0.17709 6.60886C0.17709 5.32755 0.109291 4.04624 0.0414895 2.73121C-0.0941133 0.337188 0.17709 0 2.55014 0C17.9411 0 33.332 0 48.689 0C62.8256 0 76.996 0.0337187 91.1326 0C92.7599 0 93.9125 0.472063 95.0651 1.6185C106.524 12.8805 118.016 24.0751 129.508 35.2697C130.83 36.5511 131.373 37.8324 131.373 39.6532C131.305 61.4355 131.339 83.2514 131.339 105.067ZM117.677 40.2601C117.745 40.1252 117.846 39.9904 117.914 39.8218C109.541 31.6281 101.133 23.4682 92.5226 15.0385C92.5226 16.657 92.5226 17.8709 92.5226 19.0848C92.4887 25.6599 92.4887 32.2351 92.4548 38.7765C92.4548 39.8555 92.9294 40.2601 93.9803 40.2601C101.845 40.2601 109.744 40.2601 117.677 40.2601Z" transform="translate(28.6274)" fill="black"/>
<path d="M6.02308 15.3526C7.68422 15.4538 9.14194 16.2967 10.4302 17.6118C15.4136 22.6021 20.4648 27.5251 25.3804 32.5491C26.4991 33.6956 27.1432 33.7293 28.2958 32.5828C38.3982 22.4672 48.5345 12.3854 58.6708 2.30347C60.2642 0.71869 62.027 -0.360309 64.3662 0.111753C68.8411 0.988439 70.57 5.91137 67.6545 9.38439C67.3155 9.78902 66.9426 10.1262 66.5697 10.4971C54.9757 22.0289 43.3477 33.5944 31.7537 45.1262C28.228 48.6329 25.4482 48.6329 21.8886 45.1262C15.278 38.5848 8.66734 32.0096 2.0567 25.4345C-0.0112388 23.3777 -0.519749 21.0848 0.531172 18.7245C1.48039 16.6676 3.58223 15.3189 6.02308 15.3526Z" transform="translate(0 127.244)" fill="black"/>
<path d="M22.5147 0.035189C29.2609 0.035189 36.0071 0.0689082 42.7534 0.00147086C44.5162 -0.0322478 45.1942 0.507252 45.0925 2.29434C44.9569 4.48606 45.0586 6.67777 45.0586 8.86948C45.0586 11.2972 44.9569 11.4321 42.55 11.4321C34.3799 11.4321 26.2098 11.4321 18.0398 11.4321C12.7852 11.4321 7.53055 11.3984 2.27595 11.4658C0.614812 11.4995 -0.0632006 10.9263 0.00460078 9.20667C0.106303 6.81264 0.0724021 4.41862 0.00460078 2.05831C-0.0292999 0.574688 0.513111 0.00147035 2.03864 0.035189C8.92048 0.0689077 15.7345 0.035189 22.5147 0.035189Z" transform="translate(55.6831 21.2413)" fill="black"/>
<path d="M15.528 0.03498C19.9351 0.03498 24.3422 0.102415 28.7832 0.00125922C30.5121 -0.0324595 31.0884 0.6082 30.9867 2.26042C30.885 4.65444 30.9189 7.04846 30.9867 9.40877C31.0206 10.7912 30.546 11.3982 29.0883 11.3982C20.0029 11.3645 10.9175 11.3645 1.83213 11.3982C0.510004 11.3982 -0.0324102 10.825 0.00149048 9.54365C0.0353912 7.01475 0.0692918 4.51956 0.00149048 1.99066C-0.0324102 0.4396 0.645608 0.00125922 2.10334 0.00125922C6.57823 0.0686966 11.0531 0.03498 15.528 0.03498Z" transform="translate(55.7539 87.0941)" fill="black"/>
<path d="M15.4263 0.0350457C19.9012 0.0350457 24.3761 0.0687623 28.8171 0.00132492C30.4443 -0.0323938 31.0206 0.574541 30.9528 2.15932C30.8511 4.6545 30.885 7.18341 30.9528 9.67859C30.9867 10.8925 30.4443 11.432 29.2239 11.432C20.1046 11.432 10.9514 11.432 1.83213 11.4657C0.510004 11.4657 -0.0324102 10.9262 0.00149048 9.61115C0.0353912 7.11597 0.0692918 4.58707 0.00149048 2.05817C-0.0324102 0.574545 0.510001 0.00132492 2.03553 0.00132492C6.51042 0.0687623 10.9853 0.0350457 15.4263 0.0350457Z" transform="translate(55.7539 108.033)" fill="black"/>
<path d="M15.4941 11.3632C11.0192 11.3632 6.54432 11.3295 2.06943 11.3969C0.577797 11.4306 -0.0324119 10.8911 0.0014888 9.3738C0.0692902 6.91233 0.0692902 4.48459 0.0014888 2.02312C-0.0324119 0.640655 0.509996 0 1.89992 0C10.9853 0.0337187 20.0368 0.0337208 29.1222 0.0337208C30.3765 0.0337208 31.0206 0.539501 30.9867 1.88825C30.9189 4.45087 30.9189 7.04721 30.9867 9.60983C31.0206 10.9923 30.3765 11.3969 29.0883 11.3969C24.5795 11.3632 20.0368 11.3969 15.4941 11.3632Z" transform="translate(55.7197 65.9537)" fill="black"/>
<path d="M15.1921 11.3632C10.8528 11.3632 6.51354 11.3295 2.17425 11.3969C0.61482 11.4306 -0.0631912 10.9249 0.00461018 9.30636C0.106312 6.81117 0.0724116 4.28227 0.00461018 1.75337C-0.0292905 0.505779 0.513122 0 1.73355 0C10.7511 0 19.7348 0.0337207 28.7524 0.0337207C29.9389 0.0337207 30.5491 0.539498 30.5491 1.75337C30.5491 4.38343 30.5152 7.0472 30.5491 9.67726C30.5491 11.0597 29.8372 11.3969 28.5829 11.3969C24.1419 11.3632 19.667 11.3969 15.1921 11.3632Z" transform="translate(102.398 65.9537)" fill="black"/>
<path d="M15.1213 0.0691103C19.5284 0.0691103 23.9355 0.102827 28.3425 0.0353896C29.9359 0.0016709 30.5461 0.574895 30.5122 2.15967C30.4444 4.5537 30.4444 6.914 30.5122 9.30803C30.5461 10.7242 30.0715 11.466 28.512 11.4323C19.6301 11.3986 10.7481 11.3986 1.90001 11.4323C0.476179 11.4323 -0.0323228 10.8591 0.00157792 9.4429C0.0693793 6.94772 0.0693793 4.41882 0.00157792 1.88992C-0.0323228 0.440014 0.543985 -0.0320498 1.96781 0.00166884C6.341 0.102825 10.7142 0.0691103 15.1213 0.0691103Z" transform="translate(102.469 87.0601)" fill="black"/>
<path d="M15.3623 0.0351171C19.7016 0.0351171 24.0409 0.102552 28.3802 0.0013964C29.9735 -0.0323223 30.6176 0.540891 30.5498 2.12567C30.482 4.58713 30.5159 7.01489 30.5498 9.47635C30.5498 10.8251 30.0413 11.4658 28.5836 11.4658C19.7016 11.432 10.8196 11.4658 1.93764 11.4658C0.54771 11.4658 -0.0286058 10.9263 0.00529489 9.51007C0.0730963 7.04861 0.106997 4.62085 0.00529489 2.15939C-0.0625065 0.574612 0.513801 -0.0323223 2.14103 0.0013964C6.54812 0.0688338 10.9552 0.0351171 15.3623 0.0351171Z" transform="translate(102.397 108.033)" fill="black"/>
<path d="M15.2938 11.3982C10.8867 11.3982 6.47965 11.3645 2.07256 11.4319C0.614834 11.4656 -0.0631817 10.9936 0.00461963 9.4425C0.072421 6.94731 0.072421 4.41842 0.00461963 1.88951C-0.0292811 0.608204 0.411422 -0.0324537 1.76745 0.00126497C10.7172 0.0349837 19.667 0.0349837 28.5829 0.00126497C29.8711 0.00126497 30.5152 0.473335 30.5152 1.82208C30.4813 4.3847 30.4813 6.98104 30.5152 9.54366C30.5491 10.9598 29.8711 11.4319 28.4812 11.4319C24.108 11.3645 19.7009 11.3982 15.2938 11.3982Z" transform="translate(102.432 136.795)" fill="black"/>
</svg>
