<svg width="171" height="180" viewBox="0 0 171 180" fill="none" xmlns="http://www.w3.org/2000/svg">
<g id="Schedule test">
<g id="XMLID 2">
<path id="XMLID 97" d="M77.6553 41.3862C55.8009 41.3862 33.9464 41.3862 12.092 41.3862C10.1738 41.3862 10.1738 41.3862 10.1738 43.2605C10.1738 71.8179 10.1738 100.375 10.1738 128.933C10.1738 130.841 10.1738 130.841 12.0578 130.841C32.4735 130.841 52.8892 130.841 73.305 130.841C75.2917 130.841 75.2917 130.841 75.6 132.749C75.9768 135.101 76.6277 137.384 77.2785 139.667C77.5868 140.655 77.3128 140.894 76.3194 140.894C68.8176 140.86 61.3159 140.894 53.8141 140.894C39.7355 140.894 25.6568 140.758 11.5782 140.962C5.68641 141.03 -0.0341015 135.339 0.00015307 129.41C0.102917 90.186 0.0344071 50.9281 0.0344071 11.7043C0.0344071 6.31998 4.04219 1.34459 9.21464 0.254092C9.76271 0.151858 10.3108 0.117782 10.8589 0.117782C15.9628 0.117782 21.0667 0.151858 26.1707 0.0837021C27.3353 0.0837021 27.6779 0.458561 27.6436 1.58313C27.6094 6.76299 27.7464 11.9769 27.6094 17.1568C27.4381 23.359 31.7884 28.1299 38.6393 28.4025C41.4482 28.5048 44.2228 28.3685 46.6549 26.6646C49.087 24.9606 50.4229 22.6093 50.7312 19.6786C51.1765 15.521 50.8682 11.3635 50.9367 7.20601C50.971 5.22948 50.971 3.25296 50.9367 1.24235C50.9367 0.356327 51.245 0.0496246 52.1356 0.0496246C56.3147 0.0837026 60.4938 0.0837026 64.7071 0.0496246C65.8375 0.0496246 65.906 0.66303 65.906 1.4809C65.906 6.66076 66.1115 11.8747 65.8375 17.0546C65.4949 23.1545 70.9757 28.164 76.9702 28.3685C80.3272 28.4707 83.4101 27.9936 85.8764 25.5059C87.8974 23.4612 88.9936 21.0076 89.0278 18.145C89.0621 12.6244 89.0621 7.10377 89.0278 1.61721C89.0278 0.424482 89.3361 0.0155466 90.5693 0.0496246C95.1936 0.117781 99.818 0.117781 104.442 0.0496246C105.607 0.0496246 105.915 0.458561 105.915 1.54906C105.881 6.86523 105.881 12.1814 105.915 17.4976C105.95 21.4506 107.388 24.688 110.882 26.8349C113.349 28.3685 116.089 28.4707 118.864 28.3685C121.467 28.2662 124.002 27.7891 126.365 26.5623C129.517 24.8925 131.229 22.4048 131.195 18.7244C131.127 12.9993 131.195 7.30824 131.161 1.58313C131.161 0.356327 131.538 0.0155466 132.737 0.0496246C136.607 0.117781 140.478 0.254093 144.349 0.0155471C150.138 -0.325233 154.968 4.99094 154.968 10.5797C154.968 13.4082 154.968 16.2026 154.968 19.0311C154.968 40.2276 154.968 61.39 154.968 82.5866C154.968 83.1318 155.242 83.8474 154.728 84.1201C154.249 84.3586 153.906 83.643 153.495 83.3704C151.405 81.8709 149.042 80.8827 146.644 79.9966C145.24 79.4855 144.829 78.7017 144.863 77.2704C145 65.8543 145.034 54.4381 145.103 42.9879C145.103 41.3181 145.103 41.3181 143.39 41.3181C121.433 41.3862 99.544 41.3862 77.6553 41.3862Z" transform="translate(0 9.6626)" fill="black"/>
<path id="XMLID 94" d="M91.734 45.8701C91.8025 70.2699 72.1061 91.5687 45.8671 91.5687C20.0049 91.5687 -0.0683343 70.6107 0.000174839 45.6315C0.068684 20.3797 20.6557 -0.169338 46.0726 0.00105204C72.0033 0.137364 91.9052 21.2317 91.734 45.8701ZM83.7869 45.8701C84.0609 25.6277 67.4817 8.00938 46.1411 7.90715C25.0745 7.77083 8.11852 24.6735 7.94724 45.5633C7.77597 65.8057 24.1154 83.5603 45.73 83.6626C67.5845 83.7648 83.9924 65.8398 83.7869 45.8701Z" transform="translate(79.2651 88.4314)" fill="black"/>
<path id="XMLID 93" d="M0 17.2094C0 13.6312 0 10.0871 0 6.5089C0.0342546 2.58993 2.60335 0.034078 6.50837 0C7.63877 0 8.73493 0 9.86533 0C13.1538 0.068156 15.8599 2.58993 15.8941 5.86142C15.9626 13.3927 15.9626 20.9239 15.8941 28.4551C15.8599 31.6244 13.2223 34.2484 10.0366 34.3847C8.76918 34.4529 7.50176 34.4188 6.20008 34.3847C2.77462 34.3166 0.102764 31.6585 0 28.2507C0 28.1825 0 28.0803 0 28.0121C0 24.4339 0 20.8217 0 17.2094Z" transform="translate(110.608)" fill="black"/>
<path id="XMLID 92" d="M0.00856521 17.1412C0.00856521 13.563 0.00856521 10.0189 0.00856521 6.44074C0.00856521 2.58993 2.57766 0.034078 6.41417 0C7.54457 0 8.64072 0 9.77112 0C13.0938 0.034078 15.8342 2.52177 15.8684 5.79326C15.9712 13.3586 15.9712 20.9239 15.8684 28.4892C15.8342 31.7948 13.0253 34.3166 9.70261 34.3847C8.53795 34.4188 7.40755 34.4188 6.2429 34.3847C2.71468 34.3166 0.0428167 31.6926 0.0428167 28.1825C-0.0256925 24.5021 0.00856521 20.8217 0.00856521 17.1412Z" transform="translate(31.4033 0.0339355)" fill="black"/>
<path id="XMLID 91" d="M15.9113 17.2094C15.9113 20.8217 15.9113 24.4339 15.9113 28.0462C15.9113 31.7948 13.3079 34.3506 9.50565 34.3847C8.51227 34.3847 7.51889 34.3847 6.52551 34.3847C2.82601 34.3506 0.0856365 31.8289 0.0513819 28.1484C-0.0171273 20.8557 -0.0171273 13.563 0.0513819 6.27035C0.0856365 2.52177 2.82601 0.034078 6.59401 0C7.72441 0 8.82056 0 9.95097 0C13.2737 0.068156 15.8428 2.62401 15.9113 5.8955C15.9113 5.96365 15.9113 6.06589 15.9113 6.13404C15.9113 9.81447 15.9113 13.529 15.9113 17.2094Z" transform="translate(69.4512 0.0339355)" fill="black"/>
<path id="XMLID 90" d="M10.4134 0.00278936C13.4963 0.00278936 16.545 0.0368674 19.6279 0.00278936C20.5527 0.00278936 20.9638 0.343566 20.9296 1.22959C20.9296 5.89828 20.9638 10.601 20.8953 15.2697C20.861 17.144 19.9704 17.9278 18.1207 17.9278C12.8797 17.9278 7.67303 17.9278 2.43208 17.9278C0.787857 17.9278 0.0685113 17.3144 0.0342567 15.6446C2.09022e-06 10.8055 0.0342546 5.96644 0 1.12736C0 0.241331 0.411049 -0.0312887 1.26741 0.00278936C4.35033 0.0368674 7.36473 0.00278936 10.4134 0.00278936Z" transform="translate(110.54 63.3823)" fill="black"/>
<path id="XMLID 89" d="M10.4391 17.8824C7.69872 17.8824 4.95836 17.8824 2.18374 17.8824C0.539516 17.8824 0.0256909 17.4053 0.0256909 15.7696C-0.00856365 11.2031 -0.00856365 6.67077 0.0256909 2.10431C0.0256909 0.570804 0.608023 0.0255585 2.14948 0.0255585C7.73298 -0.0085195 13.3165 -0.0085195 18.8657 0.0255585C20.3729 0.0255585 20.8525 0.570807 20.8525 2.07024C20.8525 6.70485 20.8525 11.3395 20.8525 15.9741C20.8525 17.4053 20.3387 17.8824 18.9 17.9165C16.0911 17.8824 13.248 17.8824 10.4391 17.8824Z" transform="translate(82.1855 63.4277)" fill="black"/>
<path id="XMLID 88" d="M10.4476 17.9165C7.67303 17.9165 4.86415 17.9165 2.08953 17.9165C0.479561 17.9165 0 17.4394 0 15.8718C0 11.3054 0 6.773 0 2.20655C0 0.570804 0.479563 0.0596365 2.12378 0.0255585C7.67303 -0.0085195 13.188 -0.0085195 18.7373 0.0255585C20.2787 0.0255585 20.861 0.604889 20.861 2.1384C20.8953 6.73893 20.8953 11.3395 20.861 15.94C20.861 17.4394 20.313 17.9165 18.8058 17.9506C16.0311 17.9165 13.2223 17.9165 10.4476 17.9165Z" transform="translate(22.5742 112.193)" fill="black"/>
<path id="XMLID 87" d="M10.4134 17.891C7.70728 17.891 5.00117 17.891 2.29506 17.891C0.445309 17.891 0 17.4479 0 15.6759C0 11.2117 0 6.71337 0 2.24915C0 0.477094 0.445309 0 2.29506 0C7.67303 0 13.051 0 18.429 0C20.3815 0 20.8953 0.511171 20.8953 2.4877C20.8953 6.8156 20.8953 11.1094 20.8953 15.4373C20.8953 17.4479 20.45 17.891 18.429 17.891C15.7229 17.891 13.0852 17.891 10.4134 17.891Z" transform="translate(22.5742 63.4192)" fill="black"/>
<path id="XMLID 86" d="M10.3106 17.9165C7.57027 17.9165 4.79564 17.9165 2.05528 17.9165C0.44531 17.9165 0 17.4735 0 15.8718C0 11.2713 0 6.67077 0 2.07024C0 0.536729 0.479565 0.0255585 1.98677 0.0255585C7.57026 -0.0085195 13.1538 -0.0085195 18.7373 0.0255585C20.2787 0.0255585 20.724 0.536726 20.724 2.03616C20.724 6.67077 20.724 11.3054 20.724 15.94C20.724 17.4735 20.313 17.8824 18.703 17.8824C15.8941 17.9165 13.0853 17.9165 10.3106 17.9165Z" transform="translate(52.9575 112.193)" fill="black"/>
<path id="XMLID 85" d="M10.3791 17.7206C7.60452 17.7206 4.79565 17.7206 2.02102 17.7206C0.376803 17.7206 0 17.3116 0 15.6759C0 11.1094 0 6.54298 0 2.0106C0 0.47709 0.445311 0 1.98677 0C7.60452 0 13.2223 0 18.84 0C20.3472 0 20.8268 0.47709 20.861 2.0106C20.8953 6.57705 20.8953 11.1435 20.861 15.6759C20.861 17.2776 20.3815 17.7206 18.7715 17.7206C15.9284 17.7206 13.1538 17.7206 10.3791 17.7206Z" transform="translate(22.6084 86.9329)" fill="black"/>
<path id="XMLID 84" d="M10.2764 17.7546C7.50175 17.7546 4.69288 17.7546 1.91826 17.7546C0.376803 17.7546 0 17.3798 0 15.8463C0 11.2117 0 6.57705 0 1.94244C0 0.443008 0.411055 0 1.884 0C7.53601 0 13.188 0 18.84 0C20.2787 0 20.6898 0.408936 20.6898 1.87429C20.6898 6.54298 20.6898 11.2117 20.6898 15.9144C20.6898 17.4139 20.313 17.7546 18.7373 17.7887C15.9284 17.7546 13.0853 17.7546 10.2764 17.7546Z" transform="translate(52.9575 86.8989)" fill="black"/>
<path id="XMLID 83" d="M9.89958 16.118C7.05645 16.118 4.24757 16.0839 1.40443 16.1521C0.342543 16.1862 0 15.8113 0 14.789C0.0342546 10.2225 0.0342546 5.65604 0 1.08959C0 0.237641 0.205525 -0.171295 1.16465 0.0672514C1.84975 0.237641 2.60335 0.135412 3.32269 0.135412C8.35812 0.135412 13.3593 0.16949 18.3947 0.135412C19.3881 0.135412 19.7992 0.408034 19.7992 1.46445C19.7306 5.89459 19.7649 10.3588 19.7992 14.789C19.7992 15.8795 19.3881 16.1521 18.3947 16.118C15.5858 16.0839 12.7427 16.118 9.89958 16.118Z" transform="translate(52.8896 63.2498)" fill="black"/>
<path id="XMLID 82" d="M10.3106 0.0340801C13.0167 0.0340801 15.7229 0.0340801 18.429 0.0340801C19.2168 0.0340801 19.8334 0.272626 20.313 0.88603C21.2036 1.97653 21.0666 2.76032 19.7992 3.4078C12.9825 6.95191 7.22772 11.7569 2.67186 17.925C2.32932 18.4021 2.05528 19.1178 1.19891 18.8111C0.3768 18.5044 0.0342567 17.8569 0.0342567 17.039C2.09022e-06 15.3351 0 13.6312 0 11.9273C0 8.96252 0 5.99773 0 2.99886C0 0.749712 0.78786 0 2.98015 0C5.44648 0.034078 7.87856 0.0340801 10.3106 0.0340801Z" transform="translate(82.1768 86.8647)" fill="black"/>
<path id="XMLID 81" d="M20.5535 30.568C18.2927 30.568 15.9976 30.602 13.7368 30.568C12.8805 30.568 12.6407 30.8406 12.7777 31.6925C13.1888 34.2825 12.5722 35.0663 9.96882 35.4411C8.59864 35.6115 7.26271 35.5093 5.99529 34.8959C4.9334 34.3847 4.45383 33.635 4.59085 32.4082C4.76212 30.6361 4.72787 30.602 3.01515 30.5339C1.13114 30.4657 -0.0335192 29.3071 0.000735427 27.5691C0.000735427 25.6948 1.16539 24.5021 3.04939 24.468C5.07041 24.4339 4.89914 24.5702 4.93339 22.5937C5.10467 16.187 5.27594 9.74631 5.48147 3.33964C5.54998 0.95418 6.47485 0 8.56438 0C10.7224 0 11.6816 0.954176 11.7501 3.10109C11.9556 9.84854 12.2296 16.5619 12.4009 23.3094C12.4352 24.2635 12.7777 24.5021 13.7026 24.5021C18.1214 24.468 22.5403 24.468 26.9591 24.5021C29.0144 24.5021 29.631 25.2177 29.631 27.5009C29.631 29.8183 29.0144 30.568 26.9934 30.568C24.8696 30.568 22.7115 30.568 20.5535 30.568Z" transform="translate(116.465 110.276)" fill="black"/>
<path id="XMLID 80" d="M3.11781 0.000582638C4.89905 -0.0334954 6.40625 1.43186 6.4405 3.20391C6.47476 4.97597 5.00181 6.57764 3.28909 6.61171C1.5421 6.64579 0.0691532 5.11228 0.000644023 3.20391C-0.0336106 1.39778 1.30232 0.0346606 3.11781 0.000582638Z" transform="translate(121.843 100.018)" fill="black"/>
<path id="XMLID 79" d="M6.44043 3.30556C6.40618 5.1117 4.79622 6.78152 3.152 6.71336C1.47352 6.64521 -0.0336818 5.00946 0.000572802 3.30556C0.0348274 1.5335 1.54203 0 3.25476 0C4.93323 0 6.47469 1.56758 6.44043 3.30556Z" transform="translate(90.8086 131.2)" fill="black"/>
<path id="XMLID 78" d="M3.28901 6.37258C1.57629 6.40666 0.0348273 4.97539 0.000572709 3.27149C-0.0336819 1.53351 1.47352 0 3.2205 0C4.89898 0 6.40618 1.46535 6.44043 3.16925C6.47469 4.83907 5.036 6.3385 3.28901 6.37258Z" transform="translate(137.429 104.108)" fill="black"/>
<path id="XMLID 77" d="M6.4056 3.20393C6.4056 4.90783 4.8984 6.40726 3.21993 6.40726C1.43869 6.40726 0 4.97599 0 3.13578C0 1.3978 1.5072 -0.0334818 3.21993 0.000596217C5.00117 0.0687522 6.43986 1.50003 6.4056 3.20393Z" transform="translate(94.9536 115.49)" fill="black"/>
<path id="XMLID 76" d="M6.40623 3.40838C6.33772 5.11228 4.83051 6.50948 3.08353 6.44133C1.3708 6.37317 -0.033641 4.87374 0.00061361 3.13576C0.0691228 1.43186 1.61058 -0.0334953 3.2548 0.000582737C5.10455 0.102817 6.47473 1.60225 6.40623 3.40838Z" transform="translate(148.87 146.501)" fill="black"/>
<path id="XMLID 75" d="M6.43987 3.27205C6.40561 4.94187 4.86416 6.47538 3.21994 6.4413C1.50721 6.40722 0 4.94188 0 3.23798C0 1.5 1.54146 -0.0335206 3.28844 0.000557379C4.93266 0.0346354 6.47412 1.60223 6.43987 3.27205Z" transform="translate(137.498 157.883)" fill="black"/>
<path id="XMLID 74" d="M6.40777 3.20385C6.44202 4.97591 4.93482 6.47534 3.15358 6.44127C1.54362 6.40719 0.0364093 4.94184 0.00215473 3.30609C-0.0663544 1.60219 1.50936 -0.0335547 3.22209 0.000523315C4.93482 0.0686793 6.40777 1.49995 6.40777 3.20385Z" transform="translate(106.324 104.074)" fill="black"/>
<path id="XMLID 73" d="M6.44462 3.27377C6.41037 4.94359 4.83466 6.44304 3.19044 6.44304C1.47771 6.44304 -0.0979998 4.80728 0.00476394 3.10338C0.0732731 1.39948 1.64899 -0.0658697 3.29321 0.00228629C4.97168 0.0704423 6.47888 1.60394 6.44462 3.27377Z" transform="translate(106.39 157.915)" fill="black"/>
<path id="XMLID 72" d="M3.22054 6.30504C1.4393 6.30504 0.0348681 4.97599 0.000613491 3.20393C-0.0336411 1.46595 1.3708 0.0346883 3.15204 0.000610274C5.00179 -0.0334677 6.47474 1.36373 6.44048 3.16986C6.44048 4.90784 5.00178 6.30504 3.22054 6.30504Z" transform="translate(121.946 162.143)" fill="black"/>
<path id="XMLID 71" d="M0 3.13579C0.0342546 1.36373 1.40444 -0.0334677 3.18568 0.000610328C4.96692 0.0346883 6.3371 1.4319 6.3371 3.20395C6.3371 4.94193 4.86415 6.3732 3.11717 6.33912C1.37019 6.33912 0 4.94193 0 3.13579Z" transform="translate(95.0225 146.603)" fill="black"/>
<path id="XMLID 70" d="M6.3371 3.13518C6.3371 4.94132 4.96693 6.30443 3.18569 6.30443C1.40445 6.27035 0 4.90724 0 3.13518C0 1.36312 1.40445 0 3.18569 0C5.00119 0 6.3371 1.32905 6.3371 3.13518Z" transform="translate(148.905 115.49)" fill="black"/>
<path id="XMLID 69" d="M6.06369 3.30618C6.02944 5.07824 4.72777 6.47543 3.0493 6.47543C1.33657 6.47543 -0.033626 5.04415 0.000628544 3.20394C0.000628544 1.36373 1.33656 -0.0334678 3.08354 0.000610214C4.79627 0.000610214 6.09795 1.43189 6.06369 3.30618Z" transform="translate(153.7 130.961)" fill="black"/>
</g>
</g>
</svg>
