<svg width="172" height="174" viewBox="0 0 172 174" fill="none" xmlns="http://www.w3.org/2000/svg">
<path d="M126.392 0C128.315 0.321495 130.166 0.785875 131.839 1.8218C135.863 4.32232 138.106 7.9302 138.39 12.7169C138.462 14.11 138.462 15.5389 138.462 16.932C138.462 36.0431 138.462 55.1185 138.462 74.2295C138.462 74.551 138.462 74.8725 138.462 75.194C138.497 75.8727 138.177 76.1228 137.5 76.1228C135.649 76.0871 133.833 76.0871 131.982 76.1228C131.305 76.1228 130.985 75.9084 131.056 75.2297C131.092 74.6939 131.056 74.1581 131.056 73.658C131.056 53.6539 131.056 33.6498 131.056 13.6457C131.056 10.5379 129.24 8.2517 126.356 7.60871C125.894 7.50154 125.431 7.50154 124.968 7.50154C87.7624 7.50154 50.5924 7.50154 13.3869 7.50154C9.86214 7.50154 7.3343 10.0378 7.2987 13.6099C7.2987 20.8614 7.2987 28.1129 7.2987 35.3644C7.2987 73.3008 7.2987 111.237 7.2987 149.173C7.2987 150.852 7.65473 152.353 8.79404 153.639C10.0402 155.032 11.6067 155.675 13.4581 155.675C23.6763 155.675 33.8588 155.675 44.077 155.675C55.4345 155.675 66.8276 155.675 78.185 155.675C79.538 155.675 79.5736 155.675 79.5736 156.997C79.5736 158.675 79.538 160.354 79.5736 161.998C79.6092 162.855 79.2532 163.176 78.4343 163.069C78.3631 163.069 78.2563 163.069 78.185 163.069C56.6806 163.069 35.2118 163.069 13.7073 163.069C8.54481 163.069 4.52163 160.89 1.74456 156.496C0.854479 155.068 0.391637 153.46 0 151.817C0 104.986 0 58.1548 0 11.3238C0.0712068 11.038 0.142413 10.7522 0.21362 10.4664C1.28172 6.07268 3.88077 2.96489 7.97516 1.10737C9.22128 0.535824 10.5742 0.285772 11.9271 0.0357211C50.1296 -5.45601e-07 88.2608 0 126.392 0Z" fill="black"/>
<path d="M40.6911 85.9724C38.6973 85.7224 36.7035 85.5795 34.7097 85.1865C22.0349 82.5431 12.3864 75.6131 5.76418 64.5037C2.31065 58.6811 0.423674 52.2869 0.0676405 45.4998C-0.57322 33.2116 3.34314 22.5308 11.6743 13.5647C18.439 6.27747 26.8058 1.91943 36.5967 0.490563C46.3164 -0.938302 55.5377 0.740617 64.0469 5.70592C75.5468 12.4216 82.4895 22.4594 85.0529 35.5692C85.3022 36.8194 85.409 38.1054 85.587 39.3914C85.587 41.8562 85.587 44.321 85.587 46.7858C85.4802 47.6431 85.3734 48.5361 85.231 49.3935C83.6644 59.2169 79.3208 67.6115 72.0577 74.4343C66.1475 80.0069 59.1693 83.579 51.2297 85.2222C49.1291 85.6509 47.0285 85.8295 44.8923 86.0438C43.4682 85.9724 42.0796 85.9724 40.6911 85.9724ZM42.7205 78.5423C61.5903 78.7209 78.1815 63.4678 78.2883 43.1422C78.3951 23.531 62.8008 7.38483 42.7917 7.38483C22.6046 7.38483 7.36634 23.9239 7.36634 42.8564C7.36634 62.539 23.103 78.5066 42.7205 78.5423Z" transform="translate(86.4131 87.9562)" fill="black"/>
<path d="M48.4713 0C63.2824 0 78.129 0 92.94 0C95.005 0 96.3579 1.03593 96.7852 2.89345C97.2836 5.03675 95.7171 7.18005 93.5452 7.32293C93.296 7.32293 93.0824 7.32293 92.8332 7.32293C63.2468 7.32293 33.6603 7.32293 4.07392 7.32293C1.83091 7.32293 0.406771 6.21556 0.0507372 4.21515C-0.305297 2.25046 1.26125 0.17861 3.21944 0.0357238C3.61107 2.17974e-06 3.96711 0.0357238 4.35875 0.0357238C19.063 2.17974e-06 33.7671 0 48.4713 0Z" transform="translate(16.5762 33.2212)" fill="black"/>
<path d="M35.6993 0.0158763C46.3091 0.0158763 56.9189 0.0158763 67.5288 0.0158763C69.4869 0.0158763 70.8755 1.12325 71.2671 2.94505C71.73 5.12407 70.1634 7.1602 67.956 7.33881C67.7424 7.33881 67.5644 7.33881 67.3507 7.33881C46.2379 7.33881 25.1251 7.33881 4.04791 7.33881C1.87611 7.33881 0.451971 6.23144 0.0603338 4.26675C-0.331304 2.26634 1.23525 0.158763 3.26464 0.0158763C3.62067 -0.0198453 3.97671 0.0158763 4.33274 0.0158763C14.8001 0.0158763 25.2675 0.0158763 35.6993 0.0158763Z" transform="translate(16.5664 68.9269)" fill="black"/>
<path d="M22.8934 0.0516001C29.2308 0.0516001 35.5682 0.0516001 41.9413 0.0516001C44.2911 0.0516001 45.8932 1.65907 45.8576 3.87381C45.822 5.55272 44.6115 7.05304 42.9381 7.33881C42.3685 7.44597 41.7632 7.48169 41.1936 7.48169C29.0172 7.48169 16.8053 7.48169 4.62889 7.48169C3.88122 7.48169 3.16915 7.44598 2.45708 7.19592C0.854932 6.62438 -0.213168 4.87402 0.0360555 3.30227C0.320883 1.3733 1.74502 0.0515979 3.7032 0.0158763C6.08863 -0.0198453 8.50966 0.0158763 10.8951 0.0158763C14.8827 0.0515979 18.8703 0.0516001 22.8934 0.0516001Z" transform="translate(16.5547 104.827)" fill="black"/>
<path d="M15.4947 14.5434C13.2161 17.4369 11.0087 20.2589 8.80132 23.0452C8.05364 23.9739 7.34157 24.9741 6.55829 25.8672C5.5258 27.046 4.24408 27.5461 2.71313 27.1174C1.18219 26.6888 0.292102 25.6171 0.0428784 24.0454C-0.135139 22.938 0.256499 21.9735 0.932963 21.1162C5.38339 15.4722 9.79821 9.82818 14.2486 4.18416C14.9251 3.32684 15.6016 2.43379 16.3136 1.57648C17.987 -0.495379 20.6929 -0.531094 22.3662 1.50504C24.2888 3.82694 26.1046 6.22029 27.9915 8.61364C31.2314 12.7216 34.4358 16.8296 37.6757 20.9019C38.3521 21.7592 38.8506 22.688 38.7438 23.7953C38.6014 25.3671 37.8181 26.5102 36.3227 27.046C34.7918 27.6175 33.4033 27.2603 32.3352 26.0101C30.9822 24.4383 29.7361 22.7594 28.4544 21.1519C26.7098 18.9372 24.9653 16.7224 23.0783 14.2934C23.0783 14.8649 23.0783 15.1864 23.0783 15.5079C23.0783 28.1176 23.0783 40.7274 23.0783 53.3371C23.0783 55.409 22.0458 56.8021 20.23 57.2665C18.2006 57.8023 16.0644 56.3377 15.7796 54.2302C15.7084 53.5872 15.6728 52.9442 15.6728 52.3012C15.6728 40.1201 15.6728 27.939 15.6728 15.7937C15.6728 15.4365 15.744 15.0435 15.4947 14.5434Z" transform="translate(109.865 103.374)" fill="black"/>
</svg>
